<svg width="139" height="54" viewBox="0 0 139 54" fill="none" xmlns="http://www.w3.org/2000/svg">
<rect width="139" height="54" rx="14" fill="#6100C2"/>
<path d="M39.68 21.88L36.384 33H34.32L31.984 24.584L29.504 33L27.456 33.016L24.304 21.88H26.24L28.544 30.936L31.04 21.88H33.088L35.408 30.888L37.728 21.88H39.68ZM40.5764 28.552C40.5764 27.6667 40.7577 26.8827 41.1204 26.2C41.4937 25.5173 41.995 24.9893 42.6244 24.616C43.2644 24.232 43.9684 24.04 44.7364 24.04C45.4297 24.04 46.0324 24.1787 46.5444 24.456C47.067 24.7227 47.483 25.0587 47.7924 25.464V24.184H49.6324V33H47.7924V31.688C47.483 32.104 47.0617 32.4507 46.5284 32.728C45.995 33.0053 45.387 33.144 44.7044 33.144C43.947 33.144 43.2537 32.952 42.6244 32.568C41.995 32.1733 41.4937 31.6293 41.1204 30.936C40.7577 30.232 40.5764 29.4373 40.5764 28.552ZM47.7924 28.584C47.7924 27.976 47.6644 27.448 47.4084 27C47.163 26.552 46.8377 26.2107 46.4324 25.976C46.027 25.7413 45.5897 25.624 45.1204 25.624C44.651 25.624 44.2137 25.7413 43.8084 25.976C43.403 26.2 43.0724 26.536 42.8164 26.984C42.571 27.4213 42.4484 27.944 42.4484 28.552C42.4484 29.16 42.571 29.6933 42.8164 30.152C43.0724 30.6107 43.403 30.9627 43.8084 31.208C44.2244 31.4427 44.6617 31.56 45.1204 31.56C45.5897 31.56 46.027 31.4427 46.4324 31.208C46.8377 30.9733 47.163 30.632 47.4084 30.184C47.6644 29.7253 47.7924 29.192 47.7924 28.584ZM54.1561 25.672V30.552C54.1561 30.8827 54.2308 31.1227 54.3801 31.272C54.5401 31.4107 54.8068 31.48 55.1801 31.48H56.3001V33H54.8601C54.0388 33 53.4095 32.808 52.9721 32.424C52.5348 32.04 52.3161 31.416 52.3161 30.552V25.672H51.2761V24.184H52.3161V21.992H54.1561V24.184H56.3001V25.672H54.1561ZM57.3733 28.584C57.3733 27.6773 57.5546 26.8827 57.9173 26.2C58.2906 25.5067 58.8026 24.9733 59.4533 24.6C60.1039 24.2267 60.8506 24.04 61.6933 24.04C62.7599 24.04 63.6399 24.296 64.3333 24.808C65.0373 25.3093 65.5119 26.0293 65.7573 26.968H63.7893C63.6293 26.5307 63.3733 26.1893 63.0213 25.944C62.6693 25.6987 62.2266 25.576 61.6933 25.576C60.9466 25.576 60.3493 25.8427 59.9013 26.376C59.4639 26.8987 59.2453 27.6347 59.2453 28.584C59.2453 29.5333 59.4639 30.2747 59.9013 30.808C60.3493 31.3413 60.9466 31.608 61.6933 31.608C62.7493 31.608 63.4479 31.144 63.7893 30.216H65.7573C65.5013 31.112 65.0213 31.8267 64.3173 32.36C63.6133 32.8827 62.7386 33.144 61.6933 33.144C60.8506 33.144 60.1039 32.9573 59.4533 32.584C58.8026 32.2 58.2906 31.6667 57.9173 30.984C57.5546 30.2907 57.3733 29.4907 57.3733 28.584ZM72.135 24.04C72.807 24.04 73.4043 24.184 73.927 24.472C74.4603 24.76 74.8763 25.1867 75.175 25.752C75.4843 26.3173 75.639 27 75.639 27.8V33H73.831V28.072C73.831 27.2827 73.6337 26.68 73.239 26.264C72.8443 25.8373 72.3057 25.624 71.623 25.624C70.9403 25.624 70.3963 25.8373 69.991 26.264C69.5963 26.68 69.399 27.2827 69.399 28.072V33H67.575V21.16H69.399V25.208C69.7083 24.8347 70.0977 24.5467 70.567 24.344C71.047 24.1413 71.5697 24.04 72.135 24.04ZM86.5699 24.04C87.2632 24.04 87.8819 24.184 88.4259 24.472C88.9805 24.76 89.4125 25.1867 89.7219 25.752C90.0312 26.3173 90.1859 27 90.1859 27.8V33H88.3779V28.072C88.3779 27.2827 88.1805 26.68 87.7859 26.264C87.3912 25.8373 86.8525 25.624 86.1699 25.624C85.4872 25.624 84.9432 25.8373 84.5379 26.264C84.1432 26.68 83.9459 27.2827 83.9459 28.072V33H82.1219V24.184H83.9459V25.192C84.2445 24.8293 84.6232 24.5467 85.0819 24.344C85.5512 24.1413 86.0472 24.04 86.5699 24.04ZM96.3365 33.144C95.5045 33.144 94.7525 32.9573 94.0805 32.584C93.4085 32.2 92.8805 31.6667 92.4965 30.984C92.1125 30.2907 91.9205 29.4907 91.9205 28.584C91.9205 27.688 92.1178 26.8933 92.5125 26.2C92.9072 25.5067 93.4458 24.9733 94.1285 24.6C94.8112 24.2267 95.5738 24.04 96.4165 24.04C97.2592 24.04 98.0218 24.2267 98.7045 24.6C99.3872 24.9733 99.9258 25.5067 100.321 26.2C100.715 26.8933 100.913 27.688 100.913 28.584C100.913 29.48 100.71 30.2747 100.305 30.968C99.8992 31.6613 99.3445 32.2 98.6405 32.584C97.9472 32.9573 97.1792 33.144 96.3365 33.144ZM96.3365 31.56C96.8058 31.56 97.2432 31.448 97.6485 31.224C98.0645 31 98.4005 30.664 98.6565 30.216C98.9125 29.768 99.0405 29.224 99.0405 28.584C99.0405 27.944 98.9178 27.4053 98.6725 26.968C98.4272 26.52 98.1018 26.184 97.6965 25.96C97.2912 25.736 96.8538 25.624 96.3845 25.624C95.9152 25.624 95.4778 25.736 95.0725 25.96C94.6778 26.184 94.3632 26.52 94.1285 26.968C93.8938 27.4053 93.7765 27.944 93.7765 28.584C93.7765 29.5333 94.0165 30.2693 94.4965 30.792C94.9872 31.304 95.6005 31.56 96.3365 31.56ZM114.556 24.184L111.82 33H109.9L108.124 26.488L106.348 33H104.428L101.676 24.184H103.532L105.372 31.272L107.244 24.184H109.148L110.94 31.24L112.764 24.184H114.556Z" fill="white"/>
</svg>
